<?xml version="1.0" encoding="UTF-8" standalone="no"?>
<!DOCTYPE svg PUBLIC "-//W3C//DTD SVG 1.1//EN"
 "http://www.w3.org/Graphics/SVG/1.1/DTD/svg11.dtd">
<!-- Generated by graphviz version 8.0.5 (20230430.1635)
 -->
<!-- Title: snakemake_dag Pages: 1 -->
<svg width="1114pt" height="404pt"
 viewBox="0.00 0.00 1113.88 404.00" xmlns="http://www.w3.org/2000/svg" xmlns:xlink="http://www.w3.org/1999/xlink">
<g id="graph0" class="graph" transform="scale(1 1) rotate(0) translate(4 400)">
<title>snakemake_dag</title>
<polygon fill="white" stroke="none" points="-4,4 -4,-400 1109.88,-400 1109.88,4 -4,4"/>
<!-- 0 -->
<g id="node1" class="node">
<title>0</title>
<path fill="none" stroke="#56d86b" stroke-width="2" d="M421,-36C421,-36 391,-36 391,-36 385,-36 379,-30 379,-24 379,-24 379,-12 379,-12 379,-6 385,0 391,0 391,0 421,0 421,0 427,0 433,-6 433,-12 433,-12 433,-24 433,-24 433,-30 427,-36 421,-36"/>
<text text-anchor="middle" x="406" y="-14.12" font-family="sans" font-size="10.00">all</text>
</g>
<!-- 1 -->
<g id="node2" class="node">
<title>1</title>
<path fill="none" stroke="#56a9d8" stroke-width="2" d="M82,-396C82,-396 12,-396 12,-396 6,-396 0,-390 0,-384 0,-384 0,-372 0,-372 0,-366 6,-360 12,-360 12,-360 82,-360 82,-360 88,-360 94,-366 94,-372 94,-372 94,-384 94,-384 94,-390 88,-396 82,-396"/>
<text text-anchor="middle" x="47" y="-379.75" font-family="sans" font-size="10.00">prefetch</text>
<text text-anchor="middle" x="47" y="-368.5" font-family="sans" font-size="10.00">read: ERR525688</text>
</g>
<!-- 1&#45;&gt;0 -->
<g id="edge1" class="edge">
<title>1&#45;&gt;0</title>
<path fill="none" stroke="grey" stroke-width="2" d="M37.03,-359.24C23.24,-332.96 0,-281.74 0,-235 0,-235 0,-235 0,-161 0,-104.11 41.23,-97.66 92,-72 182.1,-26.46 303.42,-18.92 365.58,-18.34"/>
<polygon fill="grey" stroke="grey" stroke-width="2" points="365.28,-21.84 375.28,-18.31 365.27,-14.84 365.28,-21.84"/>
</g>
<!-- 3 -->
<g id="node4" class="node">
<title>3</title>
<path fill="none" stroke="#567bd8" stroke-width="2" d="M108,-324C108,-324 78,-324 78,-324 72,-324 66,-318 66,-312 66,-312 66,-300 66,-300 66,-294 72,-288 78,-288 78,-288 108,-288 108,-288 114,-288 120,-294 120,-300 120,-300 120,-312 120,-312 120,-318 114,-324 108,-324"/>
<text text-anchor="middle" x="93" y="-302.12" font-family="sans" font-size="10.00">dump</text>
</g>
<!-- 1&#45;&gt;3 -->
<g id="edge18" class="edge">
<title>1&#45;&gt;3</title>
<path fill="none" stroke="grey" stroke-width="2" d="M58.61,-359.34C63.31,-352.18 68.87,-343.73 74.12,-335.73"/>
<polygon fill="grey" stroke="grey" stroke-width="2" points="77.67,-337.18 80.24,-326.9 71.82,-333.34 77.67,-337.18"/>
</g>
<!-- 2 -->
<g id="node3" class="node">
<title>2</title>
<path fill="none" stroke="#56a9d8" stroke-width="2" d="M392,-396C392,-396 322,-396 322,-396 316,-396 310,-390 310,-384 310,-384 310,-372 310,-372 310,-366 316,-360 322,-360 322,-360 392,-360 392,-360 398,-360 404,-366 404,-372 404,-372 404,-384 404,-384 404,-390 398,-396 392,-396"/>
<text text-anchor="middle" x="357" y="-379.75" font-family="sans" font-size="10.00">prefetch</text>
<text text-anchor="middle" x="357" y="-368.5" font-family="sans" font-size="10.00">read: ERR525689</text>
</g>
<!-- 2&#45;&gt;0 -->
<g id="edge2" class="edge">
<title>2&#45;&gt;0</title>
<path fill="none" stroke="grey" stroke-width="2" d="M351.41,-359.27C343.5,-332.6 330,-280.42 330,-235 330,-235 330,-235 330,-161 330,-117.06 358.64,-73.56 380.75,-46.52"/>
<polygon fill="grey" stroke="grey" stroke-width="2" points="384.32,-48.54 388.13,-38.65 378.99,-44.01 384.32,-48.54"/>
</g>
<!-- 4 -->
<g id="node5" class="node">
<title>4</title>
<path fill="none" stroke="#567bd8" stroke-width="2" d="M437,-324C437,-324 407,-324 407,-324 401,-324 395,-318 395,-312 395,-312 395,-300 395,-300 395,-294 401,-288 407,-288 407,-288 437,-288 437,-288 443,-288 449,-294 449,-300 449,-300 449,-312 449,-312 449,-318 443,-324 437,-324"/>
<text text-anchor="middle" x="422" y="-302.12" font-family="sans" font-size="10.00">dump</text>
</g>
<!-- 2&#45;&gt;4 -->
<g id="edge19" class="edge">
<title>2&#45;&gt;4</title>
<path fill="none" stroke="grey" stroke-width="2" d="M373.4,-359.34C380.43,-351.77 388.8,-342.75 396.6,-334.35"/>
<polygon fill="grey" stroke="grey" stroke-width="2" points="399.14,-336.61 403.38,-326.9 394.01,-331.85 399.14,-336.61"/>
</g>
<!-- 3&#45;&gt;0 -->
<g id="edge3" class="edge">
<title>3&#45;&gt;0</title>
<path fill="none" stroke="grey" stroke-width="2" d="M77.01,-287.3C69.35,-277.62 60.99,-264.97 57,-252 52.3,-236.71 53.11,-231.52 57,-216 74.64,-145.6 75.62,-115.11 134,-72 170.21,-45.26 298.79,-29.3 365.37,-22.64"/>
<polygon fill="grey" stroke="grey" stroke-width="2" points="365.59,-25.84 375.2,-21.4 364.91,-18.88 365.59,-25.84"/>
</g>
<!-- 7 -->
<g id="node8" class="node">
<title>7</title>
<path fill="none" stroke="#56d892" stroke-width="2" d="M181.88,-252C181.88,-252 78.12,-252 78.12,-252 72.12,-252 66.12,-246 66.12,-240 66.12,-240 66.12,-228 66.12,-228 66.12,-222 72.12,-216 78.12,-216 78.12,-216 181.88,-216 181.88,-216 187.88,-216 193.88,-222 193.88,-228 193.88,-228 193.88,-240 193.88,-240 193.88,-246 187.88,-252 181.88,-252"/>
<text text-anchor="middle" x="130" y="-235.75" font-family="sans" font-size="10.00">runBowtie</text>
<text text-anchor="middle" x="130" y="-224.5" font-family="sans" font-size="10.00">overall_pathway: butyrate</text>
</g>
<!-- 3&#45;&gt;7 -->
<g id="edge21" class="edge">
<title>3&#45;&gt;7</title>
<path fill="none" stroke="grey" stroke-width="2" d="M102.34,-287.34C106.03,-280.34 110.38,-272.12 114.52,-264.28"/>
<polygon fill="grey" stroke="grey" stroke-width="2" points="117.96,-265.38 119.54,-254.9 111.77,-262.11 117.96,-265.38"/>
</g>
<!-- 15 -->
<g id="node16" class="node">
<title>15</title>
<path fill="none" stroke="#d8cb56" stroke-width="2" d="M289.75,-252C289.75,-252 224.25,-252 224.25,-252 218.25,-252 212.25,-246 212.25,-240 212.25,-240 212.25,-228 212.25,-228 212.25,-222 218.25,-216 224.25,-216 224.25,-216 289.75,-216 289.75,-216 295.75,-216 301.75,-222 301.75,-228 301.75,-228 301.75,-240 301.75,-240 301.75,-246 295.75,-252 289.75,-252"/>
<text text-anchor="middle" x="257" y="-230.12" font-family="sans" font-size="10.00">countTotalReads</text>
</g>
<!-- 3&#45;&gt;15 -->
<g id="edge28" class="edge">
<title>3&#45;&gt;15</title>
<path fill="none" stroke="grey" stroke-width="2" d="M120.82,-293.13C143.27,-283.54 175.52,-269.78 203.01,-258.05"/>
<polygon fill="grey" stroke="grey" stroke-width="2" points="205.03,-261.14 212.85,-253.99 202.28,-254.7 205.03,-261.14"/>
</g>
<!-- 4&#45;&gt;0 -->
<g id="edge4" class="edge">
<title>4&#45;&gt;0</title>
<path fill="none" stroke="grey" stroke-width="2" d="M406.45,-287.23C399,-277.52 390.87,-264.88 387,-252 365.84,-181.57 384.15,-94.12 396.66,-49.02"/>
<polygon fill="grey" stroke="grey" stroke-width="2" points="400.81,-49.29 400.23,-38.71 394.08,-47.34 400.81,-49.29"/>
</g>
<!-- 8 -->
<g id="node9" class="node">
<title>8</title>
<path fill="none" stroke="#56d892" stroke-width="2" d="M511.88,-252C511.88,-252 408.12,-252 408.12,-252 402.12,-252 396.12,-246 396.12,-240 396.12,-240 396.12,-228 396.12,-228 396.12,-222 402.12,-216 408.12,-216 408.12,-216 511.88,-216 511.88,-216 517.88,-216 523.88,-222 523.88,-228 523.88,-228 523.88,-240 523.88,-240 523.88,-246 517.88,-252 511.88,-252"/>
<text text-anchor="middle" x="460" y="-235.75" font-family="sans" font-size="10.00">runBowtie</text>
<text text-anchor="middle" x="460" y="-224.5" font-family="sans" font-size="10.00">overall_pathway: butyrate</text>
</g>
<!-- 4&#45;&gt;8 -->
<g id="edge22" class="edge">
<title>4&#45;&gt;8</title>
<path fill="none" stroke="grey" stroke-width="2" d="M431.59,-287.34C435.39,-280.34 439.85,-272.12 444.11,-264.28"/>
<polygon fill="grey" stroke="grey" stroke-width="2" points="447.59,-265.36 449.28,-254.9 441.43,-262.02 447.59,-265.36"/>
</g>
<!-- 16 -->
<g id="node17" class="node">
<title>16</title>
<path fill="none" stroke="#d8cb56" stroke-width="2" d="M619.75,-252C619.75,-252 554.25,-252 554.25,-252 548.25,-252 542.25,-246 542.25,-240 542.25,-240 542.25,-228 542.25,-228 542.25,-222 548.25,-216 554.25,-216 554.25,-216 619.75,-216 619.75,-216 625.75,-216 631.75,-222 631.75,-228 631.75,-228 631.75,-240 631.75,-240 631.75,-246 625.75,-252 619.75,-252"/>
<text text-anchor="middle" x="587" y="-230.12" font-family="sans" font-size="10.00">countTotalReads</text>
</g>
<!-- 4&#45;&gt;16 -->
<g id="edge29" class="edge">
<title>4&#45;&gt;16</title>
<path fill="none" stroke="grey" stroke-width="2" d="M449.99,-293.13C472.58,-283.54 505.03,-269.78 532.68,-258.05"/>
<polygon fill="grey" stroke="grey" stroke-width="2" points="534.75,-261.12 542.59,-253.99 532.02,-254.67 534.75,-261.12"/>
</g>
<!-- 5 -->
<g id="node6" class="node">
<title>5</title>
<path fill="none" stroke="#8fd856" stroke-width="2" d="M658.12,-108C658.12,-108 621.88,-108 621.88,-108 615.88,-108 609.88,-102 609.88,-96 609.88,-96 609.88,-84 609.88,-84 609.88,-78 615.88,-72 621.88,-72 621.88,-72 658.12,-72 658.12,-72 664.12,-72 670.12,-78 670.12,-84 670.12,-84 670.12,-96 670.12,-96 670.12,-102 664.12,-108 658.12,-108"/>
<text text-anchor="middle" x="640" y="-86.12" font-family="sans" font-size="10.00">buildIndex</text>
</g>
<!-- 5&#45;&gt;0 -->
<g id="edge5" class="edge">
<title>5&#45;&gt;0</title>
<path fill="none" stroke="grey" stroke-width="2" d="M608.89,-76.55C604.58,-74.95 600.2,-73.39 596,-72 545.01,-55.08 485.16,-38.99 446.46,-29.07"/>
<polygon fill="grey" stroke="grey" stroke-width="2" points="446.5,-24.96 435.94,-25.89 444.77,-31.75 446.5,-24.96"/>
</g>
<!-- 6 -->
<g id="node7" class="node">
<title>6</title>
<path fill="none" stroke="#d85656" stroke-width="2" d="M764,-180C764,-180 622,-180 622,-180 616,-180 610,-174 610,-168 610,-168 610,-156 610,-156 610,-150 616,-144 622,-144 622,-144 764,-144 764,-144 770,-144 776,-150 776,-156 776,-156 776,-168 776,-168 776,-174 770,-180 764,-180"/>
<text text-anchor="middle" x="693" y="-163.75" font-family="sans" font-size="10.00">removeGeneCatalogueDupicates</text>
<text text-anchor="middle" x="693" y="-152.5" font-family="sans" font-size="10.00">overall_pathway: butyrate/butyrate</text>
</g>
<!-- 6&#45;&gt;5 -->
<g id="edge20" class="edge">
<title>6&#45;&gt;5</title>
<path fill="none" stroke="grey" stroke-width="2" d="M679.63,-143.34C674.08,-136.01 667.51,-127.34 661.33,-119.18"/>
<polygon fill="grey" stroke="grey" stroke-width="2" points="663.38,-116.76 654.55,-110.9 657.8,-120.99 663.38,-116.76"/>
</g>
<!-- 7&#45;&gt;0 -->
<g id="edge6" class="edge">
<title>7&#45;&gt;0</title>
<path fill="none" stroke="grey" stroke-width="2" d="M127.3,-215.08C123.33,-181.21 120.4,-107.98 162,-72 192.09,-45.98 304.45,-30.03 365.65,-23.08"/>
<polygon fill="grey" stroke="grey" stroke-width="2" points="365.68,-26.27 375.24,-21.7 364.92,-19.31 365.68,-26.27"/>
</g>
<!-- 9 -->
<g id="node10" class="node">
<title>9</title>
<path fill="none" stroke="#56d0d8" stroke-width="2" d="M226,-180C226,-180 156,-180 156,-180 150,-180 144,-174 144,-168 144,-168 144,-156 144,-156 144,-150 150,-144 156,-144 156,-144 226,-144 226,-144 232,-144 238,-150 238,-156 238,-156 238,-168 238,-168 238,-174 232,-180 226,-180"/>
<text text-anchor="middle" x="191" y="-158.12" font-family="sans" font-size="10.00">filterBowtieOutput</text>
</g>
<!-- 7&#45;&gt;9 -->
<g id="edge23" class="edge">
<title>7&#45;&gt;9</title>
<path fill="none" stroke="grey" stroke-width="2" d="M145.39,-215.34C151.92,-207.85 159.67,-198.95 166.92,-190.63"/>
<polygon fill="grey" stroke="grey" stroke-width="2" points="170.47,-192.74 174.4,-182.9 165.19,-188.14 170.47,-192.74"/>
</g>
<!-- 8&#45;&gt;0 -->
<g id="edge7" class="edge">
<title>8&#45;&gt;0</title>
<path fill="none" stroke="grey" stroke-width="2" d="M445.07,-215.02C437.79,-205.26 429.62,-192.63 425,-180 409.1,-136.52 405.79,-82.44 405.45,-49.34"/>
<polygon fill="grey" stroke="grey" stroke-width="2" points="408.96,-49.53 405.46,-39.53 401.96,-49.52 408.96,-49.53"/>
</g>
<!-- 10 -->
<g id="node11" class="node">
<title>10</title>
<path fill="none" stroke="#56d0d8" stroke-width="2" d="M516,-180C516,-180 446,-180 446,-180 440,-180 434,-174 434,-168 434,-168 434,-156 434,-156 434,-150 440,-144 446,-144 446,-144 516,-144 516,-144 522,-144 528,-150 528,-156 528,-156 528,-168 528,-168 528,-174 522,-180 516,-180"/>
<text text-anchor="middle" x="481" y="-158.12" font-family="sans" font-size="10.00">filterBowtieOutput</text>
</g>
<!-- 8&#45;&gt;10 -->
<g id="edge24" class="edge">
<title>8&#45;&gt;10</title>
<path fill="none" stroke="grey" stroke-width="2" d="M465.3,-215.34C467.32,-208.59 469.69,-200.69 471.97,-193.11"/>
<polygon fill="grey" stroke="grey" stroke-width="2" points="476.11,-193.49 475.63,-182.9 469.4,-191.47 476.11,-193.49"/>
</g>
<!-- 9&#45;&gt;0 -->
<g id="edge8" class="edge">
<title>9&#45;&gt;0</title>
<path fill="none" stroke="grey" stroke-width="2" d="M179.84,-143.32C169.09,-123.8 156.68,-92.45 173,-72 196.64,-42.38 305.19,-28.05 365.43,-22.26"/>
<polygon fill="grey" stroke="grey" stroke-width="2" points="365.57,-25.49 375.21,-21.1 364.93,-18.52 365.57,-25.49"/>
</g>
<!-- 11 -->
<g id="node12" class="node">
<title>11</title>
<path fill="none" stroke="#d8a456" stroke-width="2" d="M252,-108C252,-108 194,-108 194,-108 188,-108 182,-102 182,-96 182,-96 182,-84 182,-84 182,-78 188,-72 194,-72 194,-72 252,-72 252,-72 258,-72 264,-78 264,-84 264,-84 264,-96 264,-96 264,-102 258,-108 252,-108"/>
<text text-anchor="middle" x="223" y="-86.12" font-family="sans" font-size="10.00">summarizeHits</text>
</g>
<!-- 9&#45;&gt;11 -->
<g id="edge25" class="edge">
<title>9&#45;&gt;11</title>
<path fill="none" stroke="grey" stroke-width="2" d="M199.07,-143.34C202.23,-136.43 205.94,-128.31 209.49,-120.56"/>
<polygon fill="grey" stroke="grey" stroke-width="2" points="212.84,-121.45 213.82,-110.9 206.48,-118.54 212.84,-121.45"/>
</g>
<!-- 10&#45;&gt;0 -->
<g id="edge9" class="edge">
<title>10&#45;&gt;0</title>
<path fill="none" stroke="grey" stroke-width="2" d="M471.5,-143.02C458.88,-119.12 436.42,-76.59 421.37,-48.1"/>
<polygon fill="grey" stroke="grey" stroke-width="2" points="424.19,-46.05 416.42,-38.84 418,-49.32 424.19,-46.05"/>
</g>
<!-- 12 -->
<g id="node13" class="node">
<title>12</title>
<path fill="none" stroke="#d8a456" stroke-width="2" d="M542,-108C542,-108 484,-108 484,-108 478,-108 472,-102 472,-96 472,-96 472,-84 472,-84 472,-78 478,-72 484,-72 484,-72 542,-72 542,-72 548,-72 554,-78 554,-84 554,-84 554,-96 554,-96 554,-102 548,-108 542,-108"/>
<text text-anchor="middle" x="513" y="-86.12" font-family="sans" font-size="10.00">summarizeHits</text>
</g>
<!-- 10&#45;&gt;12 -->
<g id="edge26" class="edge">
<title>10&#45;&gt;12</title>
<path fill="none" stroke="grey" stroke-width="2" d="M489.07,-143.34C492.23,-136.43 495.94,-128.31 499.49,-120.56"/>
<polygon fill="grey" stroke="grey" stroke-width="2" points="502.84,-121.45 503.82,-110.9 496.48,-118.54 502.84,-121.45"/>
</g>
<!-- 11&#45;&gt;0 -->
<g id="edge10" class="edge">
<title>11&#45;&gt;0</title>
<path fill="none" stroke="grey" stroke-width="2" d="M264.98,-72.94C295.36,-61.32 336.16,-45.72 366.06,-34.28"/>
<polygon fill="grey" stroke="grey" stroke-width="2" points="368.05,-37.5 376.14,-30.66 365.55,-30.96 368.05,-37.5"/>
</g>
<!-- 12&#45;&gt;0 -->
<g id="edge11" class="edge">
<title>12&#45;&gt;0</title>
<path fill="none" stroke="grey" stroke-width="2" d="M485.72,-71.15C473.02,-62.84 457.7,-52.82 443.89,-43.79"/>
<polygon fill="grey" stroke="grey" stroke-width="2" points="445.51,-40.36 435.23,-37.81 441.68,-46.22 445.51,-40.36"/>
</g>
<!-- 13 -->
<g id="node14" class="node">
<title>13</title>
<path fill="none" stroke="#b6d856" stroke-width="2" d="M936.38,-180C936.38,-180 805.62,-180 805.62,-180 799.62,-180 793.62,-174 793.62,-168 793.62,-168 793.62,-156 793.62,-156 793.62,-150 799.62,-144 805.62,-144 805.62,-144 936.38,-144 936.38,-144 942.38,-144 948.38,-150 948.38,-156 948.38,-156 948.38,-168 948.38,-168 948.38,-174 942.38,-180 936.38,-180"/>
<text text-anchor="middle" x="871" y="-163.75" font-family="sans" font-size="10.00">compileSummaries</text>
<text text-anchor="middle" x="871" y="-152.5" font-family="sans" font-size="10.00">overall_pathway: butyrate_rerun</text>
</g>
<!-- 13&#45;&gt;0 -->
<g id="edge12" class="edge">
<title>13&#45;&gt;0</title>
<path fill="none" stroke="grey" stroke-width="2" d="M798.42,-143.01C771.7,-134.62 741.91,-123.1 717,-108 697.1,-95.94 699.69,-82.64 679,-72 603.04,-32.93 501.69,-22.55 446.32,-19.86"/>
<polygon fill="grey" stroke="grey" stroke-width="2" points="446.73,-16.26 436.6,-19.34 446.45,-23.25 446.73,-16.26"/>
</g>
<!-- 14 -->
<g id="node15" class="node">
<title>14</title>
<path fill="none" stroke="#56d8b9" stroke-width="2" d="M814,-108C814,-108 738,-108 738,-108 732,-108 726,-102 726,-96 726,-96 726,-84 726,-84 726,-78 732,-72 738,-72 738,-72 814,-72 814,-72 820,-72 826,-78 826,-84 826,-84 826,-96 826,-96 826,-102 820,-108 814,-108"/>
<text text-anchor="middle" x="776" y="-86.12" font-family="sans" font-size="10.00">writeSummaryCSV</text>
</g>
<!-- 13&#45;&gt;14 -->
<g id="edge27" class="edge">
<title>13&#45;&gt;14</title>
<path fill="none" stroke="grey" stroke-width="2" d="M847.03,-143.34C835.97,-135.19 822.65,-125.37 810.54,-116.45"/>
<polygon fill="grey" stroke="grey" stroke-width="2" points="812.42,-113.02 802.3,-109.9 808.27,-118.65 812.42,-113.02"/>
</g>
<!-- 14&#45;&gt;0 -->
<g id="edge13" class="edge">
<title>14&#45;&gt;0</title>
<path fill="none" stroke="grey" stroke-width="2" d="M725.1,-75.05C720.68,-73.97 716.27,-72.93 712,-72 617.45,-51.3 505.03,-33.57 446.3,-24.82"/>
<polygon fill="grey" stroke="grey" stroke-width="2" points="445.99,-20.94 435.59,-22.94 444.97,-27.87 445.99,-20.94"/>
</g>
<!-- 15&#45;&gt;0 -->
<g id="edge14" class="edge">
<title>15&#45;&gt;0</title>
<path fill="none" stroke="grey" stroke-width="2" d="M259.52,-215.08C264.83,-183.09 279.78,-115.44 316,-72 329.4,-55.93 349,-43.58 366.49,-34.86"/>
<polygon fill="grey" stroke="grey" stroke-width="2" points="368.59,-37.81 376.16,-30.4 365.62,-31.47 368.59,-37.81"/>
</g>
<!-- 16&#45;&gt;0 -->
<g id="edge15" class="edge">
<title>16&#45;&gt;0</title>
<path fill="none" stroke="grey" stroke-width="2" d="M589.84,-215.14C593.95,-182.65 597.63,-113.4 563,-72 534.31,-37.71 482.59,-25.52 446.38,-21.23"/>
<polygon fill="grey" stroke="grey" stroke-width="2" points="447.11,-17.49 436.81,-19.99 446.42,-24.46 447.11,-17.49"/>
</g>
<!-- 17 -->
<g id="node18" class="node">
<title>17</title>
<path fill="none" stroke="#68d856" stroke-width="2" d="M936.25,-108C936.25,-108 855.75,-108 855.75,-108 849.75,-108 843.75,-102 843.75,-96 843.75,-96 843.75,-84 843.75,-84 843.75,-78 849.75,-72 855.75,-72 855.75,-72 936.25,-72 936.25,-72 942.25,-72 948.25,-78 948.25,-84 948.25,-84 948.25,-96 948.25,-96 948.25,-102 942.25,-108 936.25,-108"/>
<text text-anchor="middle" x="896" y="-86.12" font-family="sans" font-size="10.00">compileReadCounts</text>
</g>
<!-- 17&#45;&gt;0 -->
<g id="edge16" class="edge">
<title>17&#45;&gt;0</title>
<path fill="none" stroke="grey" stroke-width="2" d="M842.88,-73.69C840.23,-73.09 837.59,-72.52 835,-72 693.73,-43.75 523.09,-28.07 446.57,-21.99"/>
<polygon fill="grey" stroke="grey" stroke-width="2" points="447.07,-18.28 436.83,-20.99 446.53,-25.26 447.07,-18.28"/>
</g>
<!-- 18 -->
<g id="node19" class="node">
<title>18</title>
<path fill="none" stroke="#d87d56" stroke-width="2" d="M1093.88,-108C1093.88,-108 978.12,-108 978.12,-108 972.12,-108 966.12,-102 966.12,-96 966.12,-96 966.12,-84 966.12,-84 966.12,-78 972.12,-72 978.12,-72 978.12,-72 1093.88,-72 1093.88,-72 1099.88,-72 1105.88,-78 1105.88,-84 1105.88,-84 1105.88,-96 1105.88,-96 1105.88,-102 1099.88,-108 1093.88,-108"/>
<text text-anchor="middle" x="1036" y="-91.75" font-family="sans" font-size="10.00">getGeneLengthsInCatalogue</text>
<text text-anchor="middle" x="1036" y="-80.5" font-family="sans" font-size="10.00">pathway: butyrate_rerun</text>
</g>
<!-- 18&#45;&gt;0 -->
<g id="edge17" class="edge">
<title>18&#45;&gt;0</title>
<path fill="none" stroke="grey" stroke-width="2" d="M965.44,-73.39C962.59,-72.9 959.77,-72.43 957,-72 767.34,-42.57 538.26,-26.8 446.69,-21.29"/>
<polygon fill="grey" stroke="grey" stroke-width="2" points="447.14,-17.64 436.95,-20.54 446.73,-24.62 447.14,-17.64"/>
</g>
</g>
</svg>
